<?xml version="1.0" encoding="UTF-8" standalone="no"?>
<svg
   xmlns:dc="http://purl.org/dc/elements/1.1/"
   xmlns:cc="http://creativecommons.org/ns#"
   xmlns:rdf="http://www.w3.org/1999/02/22-rdf-syntax-ns#"
   xmlns:svg="http://www.w3.org/2000/svg"
   xmlns="http://www.w3.org/2000/svg"
   xmlns:sodipodi="http://sodipodi.sourceforge.net/DTD/sodipodi-0.dtd"
   xmlns:inkscape="http://www.inkscape.org/namespaces/inkscape"
   sodipodi:docname="ouroboros_logo_with_text.svg"
   inkscape:version="0.91 r13725"
   version="1.1"
   id="svg3336"
   viewBox="0 0 2566.1368 600"
   height="600"
   width="2566.1367">
  <sodipodi:namedview
     inkscape:current-layer="layer7"
     inkscape:window-maximized="1"
     inkscape:window-y="1"
     inkscape:window-x="0"
     inkscape:cy="392.47339"
     inkscape:cx="1247.1187"
     inkscape:zoom="0.43255686"
     showgrid="false"
     id="namedview3348"
     inkscape:window-height="765"
     inkscape:window-width="1440"
     inkscape:pageshadow="2"
     inkscape:pageopacity="0"
     guidetolerance="10"
     gridtolerance="10"
     objecttolerance="10"
     borderopacity="1"
     bordercolor="#666666"
     pagecolor="#ffffff"
     showguides="true"
     fit-margin-top="0"
     fit-margin-left="0"
     fit-margin-right="0"
     fit-margin-bottom="0" />
  <metadata
     id="metadata3352">
    <rdf:RDF>
      <cc:Work
         rdf:about="">
        <dc:format>image/svg+xml</dc:format>
        <dc:type
           rdf:resource="http://purl.org/dc/dcmitype/StillImage" />
        <dc:title>Simple ouroboros depiction (glyph &quot;oroboros&quot; from toa267 public domain Fnord-Podge font)</dc:title>
      </cc:Work>
    </rdf:RDF>
  </metadata>
  <defs
     id="defs3350" />
  <title
     id="title3338">Simple ouroboros depiction (glyph &quot;oroboros&quot; from toa267 public domain Fnord-Podge font)</title>
  <g
     inkscape:groupmode="layer"
     id="g5485"
     inkscape:label="original"
     style="display:none"
     transform="translate(-7.5,-7.5)">
    <g
       style="opacity:0.40500004"
       id="g5487"
       transform="matrix(0.6,0,0,-0.6,7.5,607.5)">
      <path
         style="fill:#ebebeb"
         id="path5489"
         d="m 604,24 c 231,47 396,246 396,476 0,276 -224,500 -500,500 C 224,1000 0,776 0,500 0,283 146,92 358,30 c 5,-1 7,-2 12,-2 18,0 33,-13 53,-13 10,0 35,3 45,3 30,0 74,-18 104,-18 13,0 28,10 32,24 z M 342,136 C 192,198 95,341 95,500 95,724 276,905 500,905 724,905 905,724 905,500 905,328 795,176 632,120 c 1,18 -22,29 -48,29 -14,0 -27,-5 -34,-5 -10,0 -28,11 -46,11 -20,0 -54,-8 -84,-13 -30,-5 -63,-12 -78,-6 z"
         inkscape:connector-curvature="0" />
      <path
         id="path5491"
         d="m 604,24 c 231,47 396,246 396,476 0,276 -224,500 -500,500 C 224,1000 0,776 0,500 0,283 146,92 358,30 c 5,-1 7,-2 12,-2 18,0 33,-13 53,-13 10,0 35,3 45,3 30,0 74,-18 104,-18 13,0 28,10 32,24 z M 357,43 C 152,104 12,290 12,500 12,770 230,988 500,988 770,988 988,770 988,500 988,269 818,72 585,32 c -36,-6 -86,16 -86,23 0,5 21,12 25,14 C 763,81 950,270 950,500 950,749 749,950 500,950 251,950 50,749 50,500 50,346 133,202 268,123 c 13,-6 37,-7 47,-7 10,0 46,2 56,7 10,5 49,10 69,15 20,5 47,9 62,9 25,0 48,-15 56,-14 l 0,2 c 0,3 9,5 27,5 20,0 41,-7 39,-23 l -24,-9 C 580,102 571,103 561,99 536,91 530,80 507,70 484,60 450,60 450,55 c 0,-3 15,-4 25,-5 25,-3 50,-23 80,-26 20,-2 25,-1 39,0 -1,-5 -9,-15 -22,-15 -32,0 -72,19 -99,19 -15,0 -26,-6 -41,-6 -22,0 -47,18 -67,30 -5,3 -10,6 -15,6 -5,0 -5,-1 -5,-2 0,-4 20,-10 20,-13 0,-2 -3,-1 -8,0 z M 572,92 C 772,127 917,299 917,500 917,730 730,917 500,917 270,917 83,730 83,500 83,337 183,189 337,125 313,122 285,124 272,130 139,208 58,348 58,500 58,744 256,942 500,942 744,942 942,744 942,500 942,280 767,97 539,78 c 5,2 13,12 33,14 z M 342,136 C 192,198 95,341 95,500 95,724 276,905 500,905 724,905 905,724 905,500 905,328 795,176 632,120 c 1,18 -22,29 -48,29 -14,0 -27,-5 -34,-5 -10,0 -28,11 -46,11 -20,0 -54,-8 -84,-13 -30,-5 -63,-12 -78,-6 z m 104,-16 c 0,-2 4,-3 14,-3 15,-1 18,-13 30,-13 21,0 30,9 37,9 l 10,-2 1,2 c -10,7 -25,17 -35,17 -5,0 -10,-1 -20,-4 -15,-4 -37,-4 -37,-6 z m 134,7 c 18,-3 17,-9 27,-9 3,0 5,2 5,5 0,3 -12,6 -31,7 l -1,-3 z"
         inkscape:connector-curvature="0" />
      <path
         style="fill:#ffffff"
         id="path5493"
         d="m 472,119 15,3 c 0,-5 3,-10 5,-13 -9,0 -15,8 -20,10 z m 50,-2 -17,-7 c 1,5 1,10 0,15 8,-2 12,-5 17,-8 z"
         inkscape:connector-curvature="0" />
    </g>
  </g>
  <g
     style="display:none"
     inkscape:label="boundary_rect"
     id="layer2"
     inkscape:groupmode="layer"
     transform="translate(-7.5,-7.5)">
    <rect
       style="color:#000000;clip-rule:nonzero;display:inline;overflow:visible;visibility:visible;opacity:1;isolation:auto;mix-blend-mode:normal;color-interpolation:sRGB;color-interpolation-filters:linearRGB;solid-color:#000000;solid-opacity:1;fill:none;fill-opacity:1;fill-rule:nonzero;stroke:#000000;stroke-width:3.49612522;stroke-linecap:butt;stroke-linejoin:miter;stroke-miterlimit:4;stroke-dasharray:3.49612519, 3.49612519;stroke-dashoffset:0;stroke-opacity:1;color-rendering:auto;image-rendering:auto;shape-rendering:auto;text-rendering:auto;enable-background:accumulate"
       id="rect4035"
       width="597.33099"
       height="595.42047"
       x="8.8345032"
       y="9.7897644" />
  </g>
  <g
     inkscape:groupmode="layer"
     id="layer5"
     inkscape:label="fill inner"
     style="display:inline"
     transform="translate(-7.5,-7.5)">
    <path
       style="color:#000000;clip-rule:nonzero;display:inline;overflow:visible;visibility:visible;opacity:1;isolation:auto;mix-blend-mode:normal;color-interpolation:sRGB;color-interpolation-filters:linearRGB;solid-color:#000000;solid-opacity:1;fill:#3776ab;fill-opacity:1;fill-rule:nonzero;stroke:none;stroke-width:18;stroke-linecap:butt;stroke-linejoin:miter;stroke-miterlimit:4;stroke-dasharray:none;stroke-dashoffset:0;stroke-opacity:1;color-rendering:auto;image-rendering:auto;shape-rendering:auto;text-rendering:auto;enable-background:accumulate"
       d="m 335.15755,21.178523 c -29.14286,0.843232 -49.82069,27.459965 -78.5154,29.623673 -26.18267,1.506 -51.93943,-11.833255 -78.10567,-4.859019 -17.23247,5.527603 -28.0174,21.336495 -35.16631,37.056059 -9.20097,17.682924 -16.43826,39.065064 -35.84453,48.188064 -20.057939,11.62288 -45.792168,17.84403 -58.578343,38.90139 -11.789392,21.41716 -2.918521,46.25606 0.165727,68.61781 1.890079,14.68582 1.13245,30.42822 -7.011166,43.33297 -10.162194,20.04151 -26.545887,41.11605 -20.738872,65.00405 6.050407,25.53965 30.73464,38.76163 46.419627,57.68214 17.116568,20.6549 11.961357,49.54618 20.180552,73.70882 4.877139,18.60093 21.716425,32.08303 40.408715,35.01028 23.13086,4.33132 46.76424,5.71382 69.59146,11.46738 3.55798,-2.31748 -3.491,-4.38468 -5.16176,-5.57659 C 130.80009,490.96843 81.867222,435.55227 62.074559,370.31587 52.247937,340.13133 49.508497,308.05554 52.537726,276.48447 59.006745,196.22659 108.47709,121.2781 179.14112,82.735827 215.73923,62.55846 257.27503,50.613001 299.27537,51.819708 c 51.15465,-1.566833 101.8765,15.665194 143.69774,44.72313 66.35613,45.915172 108.17683,126.220662 105.32693,207.186052 0.48344,66.30926 -29.77618,131.16052 -77.8285,176.23158 -35.72505,33.7916 -81.87392,55.36414 -130.06598,64.36703 -6.2317,1.67002 -12.86831,3.61544 -17.57625,8.21959 1.25647,3.49863 7.17003,0.625 10.11614,1.53396 21.85977,-0.82609 43.70366,-0.73386 65.37243,2.4458 19.50598,2.1067 39.68511,-7.04642 49.94593,-23.97976 11.43819,-17.78957 16.82639,-39.51479 31.69295,-54.98909 20.00553,-16.66078 48.10127,-21.30267 66.11349,-40.67902 8.10308,-9.45228 11.56609,-21.8973 10.70321,-34.2226 0.30594,-25.25177 -13.6135,-51.01925 -2.95547,-75.58294 9.29811,-23.15887 29.15618,-44.24567 25.72449,-70.88735 -4.25693,-24.39172 -26.71206,-38.99048 -42.65937,-55.71544 -13.09599,-11.7315 -17.17089,-29.3824 -18.81427,-46.12361 -2.36865,-19.96239 -4.47915,-43.00162 -21.4105,-56.545175 C 476.32901,81.530433 448.39993,85.311602 424.5753,78.949305 403.58513,72.787901 391.38235,53.094087 375.44486,39.503901 365.05985,27.817958 350.96671,20.724335 335.15755,21.178523 Z"
       id="path7716"
       inkscape:connector-curvature="0"
       transform="translate(7.5,7.5)" />
  </g>
  <g
     inkscape:groupmode="layer"
     id="layer6"
     inkscape:label="fill outer"
     style="display:inline"
     transform="translate(-7.5,-7.5)">
    <path
       style="color:#000000;clip-rule:nonzero;display:inline;overflow:visible;visibility:visible;opacity:1;isolation:auto;mix-blend-mode:normal;color-interpolation:sRGB;color-interpolation-filters:linearRGB;solid-color:#000000;solid-opacity:1;fill:#ffce3e;fill-opacity:1;fill-rule:nonzero;stroke:none;stroke-width:4.26300001;stroke-linecap:butt;stroke-linejoin:miter;stroke-miterlimit:4;stroke-dasharray:none;stroke-dashoffset:0;stroke-opacity:1;color-rendering:auto;image-rendering:auto;shape-rendering:auto;text-rendering:auto;enable-background:accumulate"
       d="M 302.90201,13.836451 C 219.34623,13.693541 137.38351,53.454994 83.568172,117.00083 31.512297,176.92538 6.7339784,258.82939 15.149451,337.59658 c 8.652521,85.3445 58.772542,164.7936 131.040879,210.70859 24.68122,15.67797 51.63079,28.43655 80.05898,35.42679 3.56642,-2.41137 -2.28005,-5.63665 -4.38152,-6.57749 -2.95956,-1.12802 -6.66791,-3.80117 -1.34881,-2.10853 15.79783,6.90834 29.87217,20.47653 48.00109,20.44224 12.2349,-2.27775 24.90518,-4.66116 37.16262,-1.20163 16.35648,2.80281 32.53356,10.96632 49.40417,8.0726 4.40934,-0.9521 9.31758,-4.41288 9.74759,-9.10232 -8.01288,-2.33253 -17.19682,-0.20104 -25.46486,-1.80465 -18.85054,-2.97222 -35.19764,-14.97563 -54.52654,-16.20642 -6.41447,-0.71252 -3.29324,-1.59234 1.74268,-2.27502 13.01162,-2.6046 26.52482,-4.79438 37.43623,-12.96377 11.6248,-8.39013 25.40549,-12.5189 39.34089,-15.04679 6.52465,-2.37179 15.39211,-3.02879 19.49308,-9.20641 -0.24709,-8.2865 -10.20723,-12.1301 -17.27006,-12.83442 -8.38521,-0.70464 -17.79282,-1.2872 -25.19843,2.96404 -10.45797,-2.88468 -20.54139,-8.4483 -31.79257,-7.05836 -24.4373,-0.0136 -48.17623,7.01124 -71.91236,12.01758 -8.97824,2.23796 -17.44279,7.00261 -27.00181,4.58437 -20.70651,-4.54322 -41.59702,-8.8278 -62.78291,-10.97078 -18.2987,-2.37559 -38.68598,-8.94676 -47.918688,-26.51257 C 85.113076,473.60243 92.135744,443.09851 78.484819,418.75778 63.306802,399.6925 41.7946,385.6009 30.150699,363.77955 c -7.40877,-16.57813 -3.528396,-35.80264 5.172486,-51.08792 8.178916,-17.444 22.333484,-33.94045 20.979269,-54.32462 -0.206676,-24.80555 -13.378075,-49.77331 -4.362789,-74.29438 7.702432,-21.1434 29.80581,-31.36425 49.027255,-39.84583 14.55275,-6.06396 28.81033,-14.96435 35.87852,-29.66946 10.89104,-18.21803 16.83765,-40.457098 33.61672,-54.497499 13.52142,-10.636953 31.68216,-12.149025 48.01357,-8.93621 20.2088,2.861464 41.8766,11.284063 61.6744,1.892481 22.30972,-9.202694 42.59924,-27.216843 67.95544,-25.918533 24.15162,2.130031 40.3622,22.459996 55.83785,39.013206 10.72965,12.434269 26.11961,19.951584 42.39151,21.58085 21.50248,3.255585 46.65583,3.318999 62.77544,20.186225 16.64174,17.5934 15.69444,43.36385 19.50558,65.70826 1.55812,17.5585 14.17769,30.7358 26.20653,42.33894 12.54193,13.12212 28.56096,24.83647 32.67447,43.57428 5.36616,20.96232 -6.8561,40.97 -16.39018,58.75483 -6.86741,12.26291 -13.89538,25.54318 -12.35926,40.09064 1.17661,24.71632 13.20617,50.01793 3.5673,74.37881 -8.09552,20.56639 -29.98087,29.20474 -48.35458,38.05666 -15.60535,6.31401 -30.30864,16.72669 -37.58805,32.37282 -10.72943,20.08825 -17.73595,45.26291 -39.41641,56.56271 -23.9835,11.47352 -50.85774,0.94838 -76.19,2.30792 -14.28504,1.06404 -28.99238,0.7249 -42.87501,4.54432 -4.11495,2.25937 -10.12695,3.62005 -12.26201,8.02204 2.33928,5.83519 10.14295,7.03218 15.28433,9.54984 14.77053,5.2912 31.02596,8.2941 46.39341,3.63044 90.38243,-17.54664 171.19144,-79.99284 208.89578,-164.27577 16.84328,-37.46128 26.47026,-78.56453 24.77116,-119.77407 0.60019,-48.90171 -13.2327,-97.52013 -36.89317,-140.12761 C 539.9485,121.3083 505.40354,84.774668 464.29469,58.659148 416.10053,28.901721 359.78906,11.778407 302.90201,13.836451 Z m 6.88138,516.984209 c 6.10355,1.36746 12.11904,4.62035 16.84544,8.03037 -10.64242,-0.31009 -21.31532,8.95785 -31.5532,2.41868 -4.52447,-3.04939 -9.88457,-5.63407 -15.30931,-5.28697 10.16309,-0.89088 20.03058,-4.16616 30.01707,-5.16208 z m 50.70077,0.31014 c 4.00662,0.6998 10.10146,0.82267 12.57007,3.36784 -4.49153,1.57467 -8.43902,-2.48565 -12.57007,-3.36784 z"
       id="path7027"
       inkscape:connector-curvature="0" />
  </g>
  <g
     style="display:inline"
     inkscape:label="base"
     id="layer1"
     inkscape:groupmode="layer"
     transform="translate(-7.5,-7.5)">
    <path
       sodipodi:nodetypes="sscsssscsssscscccccssscccczsssscsscccsscscssssssscssccsscsssscssscscscccsccssc"
       inkscape:connector-curvature="0"
       id="path3344"
       d="m 307.5,7.5 c -165.6,0 -300,134.4 -300,300 0,130.2 87.600782,244.8 214.80078,282 3,0.6 4.19922,1.19922 7.19922,1.19922 10.8,0 19.80078,7.80078 31.80078,7.80078 6,0 21,-1.80078 27,-1.80078 18,0 44.39844,10.80078 62.39844,10.80078 7.8,0 16.80117,-6.00039 19.20117,-14.40039 C 508.50039,564.89961 607.5,445.5 607.5,307.5 607.5,141.9 473.1,7.5 307.5,7.5 Z m 0,7.199219 C 469.5,14.699219 600.30078,145.5 600.30078,307.5 600.30078,446.1 498.3,564.30078 358.5,588.30078 336.9,591.90078 306.90039,578.7 306.90039,574.5 c 0,-3 12.6,-7.20039 15,-8.40039 5.67117,-0.28475 11.4232,-1.02592 16.99176,-1.63781 l 0.13629,-3.86043 c -2.608,0.29165 -5.49598,-0.12149 -8.12805,0.0978 3,-1.2 7.79883,-7.19844 19.79883,-8.39844 120,-21 207,-124.20078 207,-244.80078 C 557.69922,169.5 445.5,57.300781 307.5,57.300781 169.5,57.300781 57.300781,169.5 57.300781,307.5 c 0,97.8 59.998439,186.6 152.398439,225 -13.4237,-3.22096 -18.3705,-5.46649 -29.79491,-6.34731 -11.17044,-1.92232 -10.76016,-2.01608 -22.13185,-2.91308 -1.45437,0.76386 0.9171,2.45427 0.27854,3.86974 10.09772,1.24252 11.6817,1.80036 20.41933,2.99032 8.73763,1.18996 30.43985,7.66125 36.43985,7.66125 6,0 9.18943,-1.0617 15.18943,-4.0617 6,-3 29.40039,-6 41.40039,-9 12,-3 28.19922,-5.39844 37.19922,-5.39844 15,0 28.80156,8.99844 33.60156,8.39844 l 0,-1.19922 c 0,-1.8 5.39922,-3 16.19922,-3 12,0 24.60039,4.20078 23.40039,13.80078 L 367.5,542.69922 c -12,3.6 -17.40039,3.00039 -23.40039,5.40039 -15,4.8 -18.60039,11.40039 -32.40039,17.40039 -13.8,6 -34.19922,6 -34.19922,9 0,1.8 9,2.4 15,3 15,1.8 30,13.79961 48,15.59961 12,1.2 15.00039,0.6 23.40039,0 -0.6,3 -5.40117,9 -13.20117,9 -19.2,0 -43.19844,-11.40039 -59.39844,-11.40039 -9,0 -15.60156,3.60156 -24.60156,3.60156 -13.2,0 -28.19922,-10.8 -40.19922,-18 -3,-1.8 -6,-3.60156 -9,-3.60156 -3,0 -3,0.60117 -3,1.20117 0,2.4 12,5.99883 12,7.79883 0,1.2 -1.80078,0.6 -4.80078,0 C 98.699218,545.09922 14.699219,433.5 14.699219,307.5 14.699219,145.5 145.5,14.699219 307.5,14.699219 Z M 148.34961,515.01172 c -98.89974,65.99219 -49.44987,32.99609 0,0 z M 307.5,64.5 c 134.4,0 243,108.6 243,243 0,103.2 -66.00078,194.4 -163.80078,228 0.6,-10.8 -13.19883,-17.40039 -28.79883,-17.40039 -8.4,0 -16.20039,3 -20.40039,3 -6,0 -16.79961,-6.59961 -27.59961,-6.59961 -12,0 -32.40039,4.80078 -50.40039,7.80078 -18,3 -37.80078,7.19961 -46.80078,3.59961 C 122.69922,488.70039 64.5,402.9 64.5,307.5 c 0,-134.4 108.6,-243 243,-243 z m 1.80078,465 c -3,0 -6,0.60039 -12,2.40039 -9,2.4 -22.20117,2.39961 -22.20117,3.59961 0,1.2 2.40039,1.80078 8.40039,1.80078 9,0.6 10.8,7.79883 18,7.79883 12.6,0 17.99922,-5.40039 22.19922,-5.40039 l 6,1.20117 0.60156,-1.20117 c -6,-4.2 -15,-10.19922 -21,-10.19922 z m 46.79883,0 -0.59961,1.80078 c 10.8,1.8 10.19922,5.39844 16.19922,5.39844 1.8,0 3,-1.2 3,-3 0,-1.8 -7.19961,-3.59922 -18.59961,-4.19922 z" />
    <path
       style="fill:#ffffff"
       id="path3346"
       d="m 290.7,536.1 9,-1.8 c 0,3 1.8,6 3,7.8 -5.4,0 -9,-4.8 -12,-6 z m 30,1.2 -10.2,4.2 c 0.6,-3 0.6,-6 0,-9 4.8,1.2 7.2,3 10.2,4.8 z"
       inkscape:connector-curvature="0" />
  </g>
  <g
     inkscape:groupmode="layer"
     id="layer4"
     inkscape:label="wave2"
     style="display:inline"
     transform="translate(-7.5,-7.5)">
    <path
       style="color:#000000;clip-rule:nonzero;display:inline;overflow:visible;visibility:visible;opacity:1;isolation:auto;mix-blend-mode:normal;color-interpolation:sRGB;color-interpolation-filters:linearRGB;solid-color:#000000;solid-opacity:1;fill:none;fill-opacity:1;fill-rule:nonzero;stroke:#000000;stroke-width:4;stroke-linecap:butt;stroke-linejoin:miter;stroke-miterlimit:4;stroke-dasharray:none;stroke-dashoffset:0;stroke-opacity:1;color-rendering:auto;image-rendering:auto;shape-rendering:auto;text-rendering:auto;enable-background:accumulate"
       d="m 336.42448,562.86558 c 36.7783,-3.49756 44.50979,-0.45305 54.20287,0.22335 6.40919,1.19092 14.79417,1.67357 21.16171,1.71185 6.36754,0.0383 12.56083,-0.78084 18.28711,-2.69531 5.72629,-1.91447 10.9734,-4.93028 15.5918,-8.9043 4.6184,-3.97403 8.60284,-8.9025 12.04101,-14.33789 3.43818,-5.43539 6.33198,-11.36617 9.00391,-17.24219 2.67193,-5.87601 5.13063,-11.68266 7.79492,-16.99804 2.66428,-5.31537 5.54901,-10.12944 8.98047,-14.30664 3.43146,-4.1772 7.42197,-7.71786 12.03906,-10.79883 4.61709,-3.08097 9.8633,-5.7101 15.48633,-8.27344 5.62304,-2.56335 11.61495,-5.07362 17.48047,-7.92969 5.86552,-2.85607 11.58837,-6.06975 16.63281,-9.88476 5.04444,-3.81501 9.39221,-8.23641 12.69336,-13.25781 3.30116,-5.02142 5.54282,-10.64154 6.72852,-16.63868 1.1857,-5.99714 1.31372,-12.36396 0.75195,-18.79101 -0.56177,-6.42704 -1.80181,-12.9049 -3.12695,-19.18946 -1.32514,-6.28455 -2.71847,-12.36894 -3.60352,-18.17773 -0.88505,-5.80879 -1.24597,-11.34245 -0.77343,-16.69727 0.47253,-5.35482 1.78853,-10.53898 3.85351,-15.73828 2.06497,-5.19929 4.87472,-10.42309 7.9707,-15.82422 3.09598,-5.40114 6.46255,-10.9839 9.45508,-16.76953 2.99253,-5.78563 5.59082,-11.77244 7.24024,-17.82812 1.64942,-6.05569 2.33184,-12.17391 1.80664,-18.14258 -0.52519,-5.96867 -2.26557,-11.77944 -5.04883,-17.26367 -2.78326,-5.48424 -6.60363,-10.63454 -10.95703,-15.4375 -4.35341,-4.80295 -9.22531,-9.25777 -13.98828,-13.5293 -4.76296,-4.27153 -9.40082,-8.36721 -13.42774,-12.56641 -4.02693,-4.19919 -7.43128,-8.51329 -10.05664,-13.1914 -2.62535,-4.67812 -4.46925,-9.72951 -5.75391,-15.23242 -1.28467,-5.50291 -2.0187,-11.46027 -2.68164,-17.69922 -0.66295,-6.23896 -1.27114,-12.75552 -2.3496,-19.17188 -1.07846,-6.41635 -2.64253,-12.71855 -5.03907,-18.48047 -2.39654,-5.76193 -5.63375,-10.96726 -9.75,-15.32421 -4.11625,-4.35695 -9.11009,-7.85476 -14.71875,-10.492192 -5.60866,-2.637428 -11.825,-4.411943 -18.21875,-5.636719 -6.39376,-1.224776 -12.95333,-1.909225 -19.28515,-2.564453 -6.33182,-0.655229 -12.42604,-1.297406 -18.07618,-2.425781 -5.65013,-1.128374 -10.85549,-2.757599 -15.66015,-5.150391 -4.80466,-2.392791 -9.21343,-5.55758 -13.46485,-9.386718 -4.25142,-3.829138 -8.35445,-8.320479 -12.59375,-13.023438 -4.2393,-4.702959 -8.62458,-9.603131 -13.34375,-14.083984 -4.71916,-4.480853 -9.77606,-8.520821 -15.17968,-11.591797 -5.40363,-3.070975 -11.15027,-5.154775 -17.08789,-6.033203 -2.22662,-0.329411 -4.47939,-0.48783 -6.7461,-0.486328 -3.77785,0.0025 -7.5969,0.448589 -11.40234,1.294922 -6.0887,1.354131 -12.13614,3.724637 -17.99609,6.580078 -5.85997,2.855441 -11.52831,6.182358 -17,9.333984 -5.47171,3.151625 -10.75107,6.109396 -15.97657,8.376953 -5.22551,2.267556 -10.40361,3.831255 -15.72851,4.546875 -5.32491,0.715621 -10.80411,0.580609 -16.55274,-0.142578 -5.74862,-0.723187 -11.7719,-2.025223 -18.01758,-3.355469 -6.24569,-1.330247 -12.71236,-2.67128 -19.17187,-3.419922 -6.45952,-0.748641 -12.90459,-0.886997 -19.02539,-0.0098 -6.12081,0.877281 -11.90451,2.783194 -17.11524,5.761718 -5.21073,2.978525 -9.83734,7.03042 -13.84375,11.845704 -4.00641,4.815285 -7.39144,10.38279 -10.36718,16.175781 -2.97575,5.792991 -5.54814,11.797949 -8.11133,17.500008 -2.56319,5.70204 -5.12847,11.08997 -8.09375,15.87109 -2.96527,4.78111 -6.34525,8.94998 -10.35156,12.53516 -4.0063,3.58519 -8.64732,6.58991 -13.83008,9.3164 -5.18277,2.72649 -10.90371,5.1859 -16.771486,7.79493 -5.867781,2.60901 -11.870865,5.38204 -17.460938,8.65624 -5.590074,3.27421 -10.750243,7.05794 -15.011718,11.47657 -4.261475,4.41862 -7.606948,9.47334 -9.851563,15.03711 -2.244614,5.56378 -3.380761,11.63069 -3.601563,17.91992 -0.220801,6.28922 0.468768,12.79164 1.560547,19.20898 1.09178,6.41735 2.57103,12.74205 3.820313,18.8086 1.249283,6.06654 2.250281,11.87185 2.535156,17.42968 0.284875,5.55782 -0.158663,10.87343 -1.449219,16.10352 -1.290555,5.23009 -3.429647,10.38277 -6.125,15.64453 -2.695354,5.26176 -5.937316,10.64029 -9.142578,16.22852 -3.205263,5.58822 -6.355005,11.38828 -8.816406,17.34179 -2.461401,5.95352 -4.215888,12.05591 -4.839844,18.1211 -0.623956,6.06519 -0.105738,12.08477 1.589844,17.85351 1.695581,5.76874 4.571614,11.27773 8.265625,16.42578 3.694011,5.14803 8.197525,9.93182 12.912109,14.42774 4.714585,4.49593 9.623363,8.70754 14.140625,12.87305 4.517263,4.16551 8.626033,8.29426 11.992188,12.66992 3.366154,4.37565 5.981877,9.0092 7.882812,14.08008 1.900935,5.07089 3.091536,10.58662 3.945313,16.5 0.853778,5.91338 1.38413,12.22483 2.123047,18.64648 0.738916,6.42164 1.703827,12.94338 3.353515,19.14062 1.649688,6.19725 3.996308,12.05442 7.242191,17.1875 3.24588,5.13307 7.39497,9.52827 12.32226,13.02735 4.92729,3.49907 10.62878,6.09535 16.73633,7.94922 6.10754,1.85386 12.61013,2.96924 19.07227,3.78125 3.45181,0.43373 6.88369,0.78513 10.25781,1.13476"
       id="path6974"
       inkscape:connector-curvature="0"
       sodipodi:nodetypes="ccsssssssssssssssssssssssssssssssssssssssssssssssssssssssssssssssssssssssssssssssssssssc" />
  </g>
  <g
     inkscape:groupmode="layer"
     id="layer8"
     inkscape:label="back text"
     style="display:inline">
    <text
       xml:space="preserve"
       style="font-style:normal;font-variant:normal;font-weight:normal;font-stretch:normal;font-size:500px;line-height:125%;font-family:Arial;-inkscape-font-specification:'Arial, Normal';text-align:start;letter-spacing:0px;word-spacing:0px;writing-mode:lr-tb;text-anchor:start;display:inline;fill:#3776ab;fill-opacity:1;stroke:#3776ab;stroke-width:18;stroke-linecap:butt;stroke-linejoin:miter;stroke-miterlimit:4;stroke-dasharray:none;stroke-opacity:1"
       x="603.76752"
       y="579.23419"
       id="text3371"
       sodipodi:linespacing="125%"><tspan
         sodipodi:role="line"
         x="603.76752"
         y="579.23419"
         id="tspan3373"><tspan
           x="603.76752"
           y="579.23419"
           style="font-style:normal;font-variant:normal;font-weight:normal;font-stretch:normal;font-size:500px;font-family:Arial;-inkscape-font-specification:Arial;fill:#3776ab;fill-opacity:1;stroke:#3776ab;stroke-width:18;stroke-miterlimit:4;stroke-dasharray:none;stroke-opacity:1"
           id="tspan3375">uroboros</tspan></tspan></text>
  </g>
  <g
     inkscape:groupmode="layer"
     id="layer7"
     inkscape:label="front text"
     transform="translate(-7.5,-7.5)"
     style="display:inline">
    <text
       xml:space="preserve"
       style="font-style:normal;font-variant:normal;font-weight:normal;font-stretch:normal;font-size:500px;line-height:125%;font-family:Arial;-inkscape-font-specification:'Arial, Normal';text-align:start;letter-spacing:0px;word-spacing:0px;writing-mode:lr-tb;text-anchor:start;display:inline;fill:#000000;fill-opacity:1;stroke:none;stroke-width:6;stroke-linecap:butt;stroke-linejoin:miter;stroke-miterlimit:4;stroke-dasharray:none;stroke-opacity:1"
       x="595.8443"
       y="577.48022"
       id="text3361"
       sodipodi:linespacing="125%"><tspan
         sodipodi:role="line"
         x="595.8443"
         y="577.48022"
         id="tspan3363"><tspan
           x="595.8443"
           y="577.48022"
           style="font-style:normal;font-variant:normal;font-weight:normal;font-stretch:normal;font-size:500px;font-family:Arial;-inkscape-font-specification:Arial;fill:#ffce3e;fill-opacity:1;stroke:#000000;stroke-width:6;stroke-miterlimit:4;stroke-dasharray:none;stroke-opacity:1"
           id="tspan3365">uroboros</tspan></tspan></text>
    <text
       xml:space="preserve"
       style="font-style:normal;font-variant:normal;font-weight:normal;font-stretch:normal;font-size:37.5px;line-height:125%;font-family:Arial;-inkscape-font-specification:'Arial, Normal';text-align:start;letter-spacing:0px;word-spacing:0px;writing-mode:lr-tb;text-anchor:start;fill:#000000;fill-opacity:1;stroke:none;stroke-width:1px;stroke-linecap:butt;stroke-linejoin:miter;stroke-opacity:1"
       x="1002.5091"
       y="-43.029053"
       id="text7683"
       sodipodi:linespacing="125%"><tspan
         sodipodi:role="line"
         id="tspan7685"
         x="1002.5091"
         y="-43.029053" /></text>
  </g>
</svg>
